<mxfile host="app.diagrams.net" modified="2021-02-21T16:15:42.235Z" agent="5.0 (Windows NT 10.0; Win64; x64) AppleWebKit/537.36 (KHTML, like Gecko) Chrome/88.0.4324.182 Safari/537.36" etag="Ry4tm0YOfbKOc199kvC7" version="14.4.2" type="github">
  <diagram id="5juPxeoqqTJk6rbSkrIf" name="Page-1">
    <mxGraphModel dx="2485" dy="902" grid="1" gridSize="10" guides="1" tooltips="1" connect="1" arrows="1" fold="1" page="1" pageScale="1" pageWidth="850" pageHeight="1100" background="none" math="0" shadow="0">
      <root>
        <mxCell id="0" />
        <mxCell id="1" parent="0" />
        <mxCell id="0zxNCpDedVLn85YkthtU-3" value="External" style="edgeStyle=orthogonalEdgeStyle;rounded=0;orthogonalLoop=1;jettySize=auto;html=1;" parent="1" source="0zxNCpDedVLn85YkthtU-1" target="0zxNCpDedVLn85YkthtU-2" edge="1">
          <mxGeometry x="-0.0588" y="30" relative="1" as="geometry">
            <mxPoint as="offset" />
          </mxGeometry>
        </mxCell>
        <mxCell id="0zxNCpDedVLn85YkthtU-5" value="Internal" style="edgeStyle=orthogonalEdgeStyle;rounded=0;orthogonalLoop=1;jettySize=auto;html=1;" parent="1" source="0zxNCpDedVLn85YkthtU-1" target="0zxNCpDedVLn85YkthtU-4" edge="1">
          <mxGeometry x="-0.5" y="-30" relative="1" as="geometry">
            <mxPoint as="offset" />
          </mxGeometry>
        </mxCell>
        <mxCell id="0zxNCpDedVLn85YkthtU-1" value="Post Validation &lt;br&gt;Doc Generates" style="shape=hexagon;perimeter=hexagonPerimeter2;whiteSpace=wrap;html=1;fixedSize=1;" parent="1" vertex="1">
          <mxGeometry x="80" y="40" width="120" height="80" as="geometry" />
        </mxCell>
        <mxCell id="0zxNCpDedVLn85YkthtU-7" value="" style="edgeStyle=orthogonalEdgeStyle;rounded=0;orthogonalLoop=1;jettySize=auto;html=1;" parent="1" source="0zxNCpDedVLn85YkthtU-2" target="0zxNCpDedVLn85YkthtU-6" edge="1">
          <mxGeometry relative="1" as="geometry" />
        </mxCell>
        <mxCell id="0zxNCpDedVLn85YkthtU-2" value="External&lt;br&gt;Doc Generates" style="shape=hexagon;perimeter=hexagonPerimeter2;whiteSpace=wrap;html=1;fixedSize=1;" parent="1" vertex="1">
          <mxGeometry x="242.5" y="40" width="120" height="80" as="geometry" />
        </mxCell>
        <mxCell id="0zxNCpDedVLn85YkthtU-4" value="Internal &lt;br&gt;Doc Generates" style="shape=hexagon;perimeter=hexagonPerimeter2;whiteSpace=wrap;html=1;fixedSize=1;" parent="1" vertex="1">
          <mxGeometry x="80" y="160" width="120" height="80" as="geometry" />
        </mxCell>
        <mxCell id="0zxNCpDedVLn85YkthtU-20" style="edgeStyle=orthogonalEdgeStyle;rounded=0;orthogonalLoop=1;jettySize=auto;html=1;entryX=0.5;entryY=0;entryDx=0;entryDy=0;" parent="1" source="0zxNCpDedVLn85YkthtU-6" target="0zxNCpDedVLn85YkthtU-8" edge="1">
          <mxGeometry relative="1" as="geometry">
            <Array as="points">
              <mxPoint x="460" y="140" />
              <mxPoint x="303" y="140" />
            </Array>
          </mxGeometry>
        </mxCell>
        <mxCell id="0zxNCpDedVLn85YkthtU-21" style="edgeStyle=orthogonalEdgeStyle;rounded=0;orthogonalLoop=1;jettySize=auto;html=1;entryX=0.5;entryY=0;entryDx=0;entryDy=0;" parent="1" source="0zxNCpDedVLn85YkthtU-6" target="0zxNCpDedVLn85YkthtU-10" edge="1">
          <mxGeometry relative="1" as="geometry" />
        </mxCell>
        <mxCell id="0zxNCpDedVLn85YkthtU-6" value="Doc Provider" style="shape=hexagon;perimeter=hexagonPerimeter2;whiteSpace=wrap;html=1;fixedSize=1;" parent="1" vertex="1">
          <mxGeometry x="400" y="40" width="120" height="80" as="geometry" />
        </mxCell>
        <mxCell id="0zxNCpDedVLn85YkthtU-13" value="" style="edgeStyle=orthogonalEdgeStyle;rounded=0;orthogonalLoop=1;jettySize=auto;html=1;" parent="1" source="0zxNCpDedVLn85YkthtU-8" target="0zxNCpDedVLn85YkthtU-12" edge="1">
          <mxGeometry relative="1" as="geometry" />
        </mxCell>
        <mxCell id="0zxNCpDedVLn85YkthtU-8" value="BayDocs" style="shape=hexagon;perimeter=hexagonPerimeter2;whiteSpace=wrap;html=1;fixedSize=1;" parent="1" vertex="1">
          <mxGeometry x="242.5" y="160" width="120" height="80" as="geometry" />
        </mxCell>
        <mxCell id="0zxNCpDedVLn85YkthtU-15" value="" style="edgeStyle=orthogonalEdgeStyle;rounded=0;orthogonalLoop=1;jettySize=auto;html=1;" parent="1" source="0zxNCpDedVLn85YkthtU-10" target="0zxNCpDedVLn85YkthtU-14" edge="1">
          <mxGeometry relative="1" as="geometry" />
        </mxCell>
        <mxCell id="0zxNCpDedVLn85YkthtU-10" value="Accenture&lt;br&gt;Finale" style="shape=hexagon;perimeter=hexagonPerimeter2;whiteSpace=wrap;html=1;fixedSize=1;" parent="1" vertex="1">
          <mxGeometry x="400" y="160" width="120" height="80" as="geometry" />
        </mxCell>
        <mxCell id="0zxNCpDedVLn85YkthtU-17" value="" style="edgeStyle=orthogonalEdgeStyle;rounded=0;orthogonalLoop=1;jettySize=auto;html=1;" parent="1" source="0zxNCpDedVLn85YkthtU-12" target="0zxNCpDedVLn85YkthtU-16" edge="1">
          <mxGeometry relative="1" as="geometry" />
        </mxCell>
        <mxCell id="0zxNCpDedVLn85YkthtU-12" value="Baydocs&lt;br&gt;Package ID" style="shape=hexagon;perimeter=hexagonPerimeter2;whiteSpace=wrap;html=1;fixedSize=1;" parent="1" vertex="1">
          <mxGeometry x="242.5" y="280" width="120" height="80" as="geometry" />
        </mxCell>
        <mxCell id="0zxNCpDedVLn85YkthtU-19" value="" style="edgeStyle=orthogonalEdgeStyle;rounded=0;orthogonalLoop=1;jettySize=auto;html=1;" parent="1" source="0zxNCpDedVLn85YkthtU-14" target="0zxNCpDedVLn85YkthtU-18" edge="1">
          <mxGeometry relative="1" as="geometry" />
        </mxCell>
        <mxCell id="0zxNCpDedVLn85YkthtU-14" value="Accenture &lt;br&gt;Pacakge ID" style="shape=hexagon;perimeter=hexagonPerimeter2;whiteSpace=wrap;html=1;fixedSize=1;" parent="1" vertex="1">
          <mxGeometry x="400" y="280" width="120" height="80" as="geometry" />
        </mxCell>
        <mxCell id="0zxNCpDedVLn85YkthtU-23" value="" style="edgeStyle=orthogonalEdgeStyle;rounded=0;orthogonalLoop=1;jettySize=auto;html=1;" parent="1" source="0zxNCpDedVLn85YkthtU-16" target="0zxNCpDedVLn85YkthtU-22" edge="1">
          <mxGeometry relative="1" as="geometry" />
        </mxCell>
        <mxCell id="0zxNCpDedVLn85YkthtU-42" style="edgeStyle=orthogonalEdgeStyle;rounded=0;orthogonalLoop=1;jettySize=auto;html=1;entryX=0.5;entryY=1;entryDx=0;entryDy=0;fillColor=#e51400;strokeColor=#B20000;" parent="1" source="0zxNCpDedVLn85YkthtU-16" target="0zxNCpDedVLn85YkthtU-39" edge="1">
          <mxGeometry relative="1" as="geometry">
            <Array as="points">
              <mxPoint x="303" y="500" />
              <mxPoint x="660" y="500" />
            </Array>
          </mxGeometry>
        </mxCell>
        <mxCell id="0zxNCpDedVLn85YkthtU-16" value="MISMO&lt;br&gt;v3.4 XML" style="shape=hexagon;perimeter=hexagonPerimeter2;whiteSpace=wrap;html=1;fixedSize=1;" parent="1" vertex="1">
          <mxGeometry x="242.5" y="400" width="120" height="80" as="geometry" />
        </mxCell>
        <mxCell id="0zxNCpDedVLn85YkthtU-25" value="" style="edgeStyle=orthogonalEdgeStyle;rounded=0;orthogonalLoop=1;jettySize=auto;html=1;" parent="1" source="0zxNCpDedVLn85YkthtU-18" target="0zxNCpDedVLn85YkthtU-24" edge="1">
          <mxGeometry relative="1" as="geometry" />
        </mxCell>
        <mxCell id="0zxNCpDedVLn85YkthtU-40" value="" style="edgeStyle=orthogonalEdgeStyle;rounded=0;orthogonalLoop=1;jettySize=auto;html=1;fillColor=#e51400;strokeColor=#B20000;" parent="1" source="0zxNCpDedVLn85YkthtU-18" target="0zxNCpDedVLn85YkthtU-39" edge="1">
          <mxGeometry relative="1" as="geometry" />
        </mxCell>
        <mxCell id="0zxNCpDedVLn85YkthtU-18" value="MISMO&lt;br&gt;v2.6 XML" style="shape=hexagon;perimeter=hexagonPerimeter2;whiteSpace=wrap;html=1;fixedSize=1;" parent="1" vertex="1">
          <mxGeometry x="400" y="400" width="120" height="80" as="geometry" />
        </mxCell>
        <mxCell id="0zxNCpDedVLn85YkthtU-27" value="" style="edgeStyle=orthogonalEdgeStyle;rounded=0;orthogonalLoop=1;jettySize=auto;html=1;" parent="1" source="0zxNCpDedVLn85YkthtU-22" target="0zxNCpDedVLn85YkthtU-26" edge="1">
          <mxGeometry relative="1" as="geometry" />
        </mxCell>
        <mxCell id="0zxNCpDedVLn85YkthtU-22" value="Prep before Call to Vendor" style="shape=hexagon;perimeter=hexagonPerimeter2;whiteSpace=wrap;html=1;fixedSize=1;" parent="1" vertex="1">
          <mxGeometry x="242.5" y="520" width="120" height="80" as="geometry" />
        </mxCell>
        <mxCell id="0zxNCpDedVLn85YkthtU-30" value="" style="edgeStyle=orthogonalEdgeStyle;rounded=0;orthogonalLoop=1;jettySize=auto;html=1;" parent="1" source="0zxNCpDedVLn85YkthtU-24" target="0zxNCpDedVLn85YkthtU-29" edge="1">
          <mxGeometry relative="1" as="geometry" />
        </mxCell>
        <mxCell id="0zxNCpDedVLn85YkthtU-24" value="Prep before Call to Vendor" style="shape=hexagon;perimeter=hexagonPerimeter2;whiteSpace=wrap;html=1;fixedSize=1;" parent="1" vertex="1">
          <mxGeometry x="400" y="520" width="120" height="80" as="geometry" />
        </mxCell>
        <mxCell id="0zxNCpDedVLn85YkthtU-34" style="edgeStyle=orthogonalEdgeStyle;rounded=0;orthogonalLoop=1;jettySize=auto;html=1;entryX=0.38;entryY=0.01;entryDx=0;entryDy=0;entryPerimeter=0;" parent="1" source="0zxNCpDedVLn85YkthtU-26" target="0zxNCpDedVLn85YkthtU-28" edge="1">
          <mxGeometry relative="1" as="geometry" />
        </mxCell>
        <mxCell id="0zxNCpDedVLn85YkthtU-26" value="Adapter To&lt;br&gt;Call Baydocs" style="shape=hexagon;perimeter=hexagonPerimeter2;whiteSpace=wrap;html=1;fixedSize=1;" parent="1" vertex="1">
          <mxGeometry x="242.5" y="640" width="120" height="80" as="geometry" />
        </mxCell>
        <mxCell id="0zxNCpDedVLn85YkthtU-35" style="edgeStyle=orthogonalEdgeStyle;rounded=0;orthogonalLoop=1;jettySize=auto;html=1;entryX=0.5;entryY=0;entryDx=0;entryDy=0;" parent="1" source="0zxNCpDedVLn85YkthtU-28" target="0zxNCpDedVLn85YkthtU-31" edge="1">
          <mxGeometry relative="1" as="geometry" />
        </mxCell>
        <mxCell id="0zxNCpDedVLn85YkthtU-37" style="edgeStyle=orthogonalEdgeStyle;rounded=0;orthogonalLoop=1;jettySize=auto;html=1;entryX=0.5;entryY=0;entryDx=0;entryDy=0;" parent="1" source="0zxNCpDedVLn85YkthtU-28" target="0zxNCpDedVLn85YkthtU-36" edge="1">
          <mxGeometry relative="1" as="geometry">
            <Array as="points">
              <mxPoint x="303" y="860" />
              <mxPoint x="470" y="860" />
            </Array>
          </mxGeometry>
        </mxCell>
        <mxCell id="0zxNCpDedVLn85YkthtU-28" value="" style="outlineConnect=0;dashed=0;verticalLabelPosition=bottom;verticalAlign=top;align=center;html=1;shape=mxgraph.aws3.internet;fillColor=#D2D3D3;gradientColor=none;" parent="1" vertex="1">
          <mxGeometry x="262.75" y="760" width="79.5" height="79.5" as="geometry" />
        </mxCell>
        <mxCell id="0zxNCpDedVLn85YkthtU-38" style="edgeStyle=orthogonalEdgeStyle;rounded=0;orthogonalLoop=1;jettySize=auto;html=1;entryX=1;entryY=0.47;entryDx=0;entryDy=0;entryPerimeter=0;" parent="1" source="0zxNCpDedVLn85YkthtU-29" target="0zxNCpDedVLn85YkthtU-28" edge="1">
          <mxGeometry relative="1" as="geometry">
            <Array as="points">
              <mxPoint x="460" y="797" />
            </Array>
          </mxGeometry>
        </mxCell>
        <mxCell id="0zxNCpDedVLn85YkthtU-29" value="Adapter to&amp;nbsp;&lt;br&gt;Call Accenture" style="shape=hexagon;perimeter=hexagonPerimeter2;whiteSpace=wrap;html=1;fixedSize=1;" parent="1" vertex="1">
          <mxGeometry x="400" y="640" width="120" height="80" as="geometry" />
        </mxCell>
        <mxCell id="0zxNCpDedVLn85YkthtU-44" style="edgeStyle=orthogonalEdgeStyle;rounded=0;orthogonalLoop=1;jettySize=auto;html=1;entryX=0.5;entryY=1;entryDx=0;entryDy=0;fillColor=#e51400;strokeColor=#B20000;" parent="1" source="0zxNCpDedVLn85YkthtU-31" target="0zxNCpDedVLn85YkthtU-43" edge="1">
          <mxGeometry relative="1" as="geometry">
            <Array as="points">
              <mxPoint x="303" y="990" />
              <mxPoint x="660" y="990" />
            </Array>
          </mxGeometry>
        </mxCell>
        <mxCell id="0zxNCpDedVLn85YkthtU-31" value="Success&lt;br&gt;PDF Recd" style="shape=hexagon;perimeter=hexagonPerimeter2;whiteSpace=wrap;html=1;fixedSize=1;" parent="1" vertex="1">
          <mxGeometry x="242.5" y="880" width="120" height="80" as="geometry" />
        </mxCell>
        <mxCell id="0zxNCpDedVLn85YkthtU-45" style="edgeStyle=orthogonalEdgeStyle;rounded=0;orthogonalLoop=1;jettySize=auto;html=1;entryX=0;entryY=0.5;entryDx=0;entryDy=0;fillColor=#e51400;strokeColor=#B20000;" parent="1" source="0zxNCpDedVLn85YkthtU-36" target="0zxNCpDedVLn85YkthtU-43" edge="1">
          <mxGeometry relative="1" as="geometry" />
        </mxCell>
        <mxCell id="0zxNCpDedVLn85YkthtU-36" value="Failure&lt;br&gt;PDF Not Recd" style="shape=hexagon;perimeter=hexagonPerimeter2;whiteSpace=wrap;html=1;fixedSize=1;" parent="1" vertex="1">
          <mxGeometry x="410" y="880" width="120" height="80" as="geometry" />
        </mxCell>
        <mxCell id="0zxNCpDedVLn85YkthtU-39" value="Store the XML&lt;br&gt;In Loan File" style="shape=hexagon;perimeter=hexagonPerimeter2;whiteSpace=wrap;html=1;fixedSize=1;fillColor=#e51400;strokeColor=#B20000;fontColor=#ffffff;" parent="1" vertex="1">
          <mxGeometry x="600" y="400" width="120" height="80" as="geometry" />
        </mxCell>
        <mxCell id="0zxNCpDedVLn85YkthtU-43" value="Store the PDF&amp;nbsp;&lt;br&gt;or &lt;br&gt;Error Resp&lt;br&gt;in Loan File" style="shape=hexagon;perimeter=hexagonPerimeter2;whiteSpace=wrap;html=1;fixedSize=1;fillColor=#e51400;strokeColor=#B20000;fontColor=#ffffff;" parent="1" vertex="1">
          <mxGeometry x="600" y="880" width="120" height="80" as="geometry" />
        </mxCell>
        <mxCell id="0zxNCpDedVLn85YkthtU-50" value="" style="edgeStyle=orthogonalEdgeStyle;rounded=0;orthogonalLoop=1;jettySize=auto;html=1;" parent="1" source="0zxNCpDedVLn85YkthtU-46" target="0zxNCpDedVLn85YkthtU-49" edge="1">
          <mxGeometry relative="1" as="geometry" />
        </mxCell>
        <mxCell id="0zxNCpDedVLn85YkthtU-56" style="edgeStyle=orthogonalEdgeStyle;rounded=0;orthogonalLoop=1;jettySize=auto;html=1;entryX=0.5;entryY=0;entryDx=0;entryDy=0;" parent="1" source="0zxNCpDedVLn85YkthtU-46" target="0zxNCpDedVLn85YkthtU-52" edge="1">
          <mxGeometry relative="1" as="geometry" />
        </mxCell>
        <mxCell id="0zxNCpDedVLn85YkthtU-46" value="User request&lt;br&gt;for a package" style="shape=hexagon;perimeter=hexagonPerimeter2;whiteSpace=wrap;html=1;fixedSize=1;" parent="1" vertex="1">
          <mxGeometry x="-720" y="40" width="120" height="80" as="geometry" />
        </mxCell>
        <mxCell id="sQC9BKvYQwO3YxjcOTNA-5" style="edgeStyle=orthogonalEdgeStyle;rounded=0;orthogonalLoop=1;jettySize=auto;html=1;entryX=0;entryY=0.5;entryDx=0;entryDy=0;" edge="1" parent="1" source="0zxNCpDedVLn85YkthtU-47" target="0zxNCpDedVLn85YkthtU-46">
          <mxGeometry relative="1" as="geometry" />
        </mxCell>
        <mxCell id="0zxNCpDedVLn85YkthtU-47" value="Loan Files&lt;br&gt;User" style="shape=umlActor;verticalLabelPosition=bottom;verticalAlign=top;html=1;outlineConnect=0;spacingLeft=35;spacingBottom=0;" parent="1" vertex="1">
          <mxGeometry x="-811" y="50" width="30" height="60" as="geometry" />
        </mxCell>
        <mxCell id="0zxNCpDedVLn85YkthtU-60" value="" style="edgeStyle=orthogonalEdgeStyle;rounded=0;orthogonalLoop=1;jettySize=auto;html=1;" parent="1" source="0zxNCpDedVLn85YkthtU-49" target="0zxNCpDedVLn85YkthtU-59" edge="1">
          <mxGeometry relative="1" as="geometry" />
        </mxCell>
        <mxCell id="0zxNCpDedVLn85YkthtU-49" value="Validation&amp;nbsp;&lt;br&gt;Success" style="shape=hexagon;perimeter=hexagonPerimeter2;whiteSpace=wrap;html=1;fixedSize=1;" parent="1" vertex="1">
          <mxGeometry x="-560" y="40" width="120" height="80" as="geometry" />
        </mxCell>
        <mxCell id="0zxNCpDedVLn85YkthtU-58" value="returns" style="edgeStyle=orthogonalEdgeStyle;rounded=0;orthogonalLoop=1;jettySize=auto;html=1;entryX=0;entryY=1;entryDx=0;entryDy=0;entryPerimeter=0;dashed=1;" parent="1" source="0zxNCpDedVLn85YkthtU-52" target="0zxNCpDedVLn85YkthtU-47" edge="1">
          <mxGeometry relative="1" as="geometry" />
        </mxCell>
        <mxCell id="0zxNCpDedVLn85YkthtU-52" value="Validation&amp;nbsp;&lt;br&gt;Failed" style="shape=hexagon;perimeter=hexagonPerimeter2;whiteSpace=wrap;html=1;fixedSize=1;" parent="1" vertex="1">
          <mxGeometry x="-720" y="170" width="120" height="80" as="geometry" />
        </mxCell>
        <mxCell id="0zxNCpDedVLn85YkthtU-67" value="" style="edgeStyle=orthogonalEdgeStyle;rounded=0;orthogonalLoop=1;jettySize=auto;html=1;" parent="1" source="0zxNCpDedVLn85YkthtU-59" target="0zxNCpDedVLn85YkthtU-66" edge="1">
          <mxGeometry relative="1" as="geometry" />
        </mxCell>
        <mxCell id="0zxNCpDedVLn85YkthtU-59" value="Get Doc Provider" style="shape=hexagon;perimeter=hexagonPerimeter2;whiteSpace=wrap;html=1;fixedSize=1;" parent="1" vertex="1">
          <mxGeometry x="-400" y="40" width="120" height="80" as="geometry" />
        </mxCell>
        <mxCell id="sQC9BKvYQwO3YxjcOTNA-8" style="edgeStyle=orthogonalEdgeStyle;rounded=0;orthogonalLoop=1;jettySize=auto;html=1;entryX=0.5;entryY=0;entryDx=0;entryDy=0;entryPerimeter=0;" edge="1" parent="1" source="0zxNCpDedVLn85YkthtU-65" target="sQC9BKvYQwO3YxjcOTNA-6">
          <mxGeometry relative="1" as="geometry">
            <Array as="points">
              <mxPoint x="-180" y="260" />
              <mxPoint x="-770" y="260" />
            </Array>
          </mxGeometry>
        </mxCell>
        <mxCell id="0zxNCpDedVLn85YkthtU-65" value="Hangfire &lt;br&gt;Client" style="pointerEvents=1;shadow=0;dashed=0;html=1;strokeColor=none;fillColor=#505050;labelPosition=center;verticalLabelPosition=bottom;verticalAlign=top;outlineConnect=0;align=center;shape=mxgraph.office.servers.call_admission_control_service;spacingLeft=60;" parent="1" vertex="1">
          <mxGeometry x="-205" y="170" width="50" height="60" as="geometry" />
        </mxCell>
        <mxCell id="0zxNCpDedVLn85YkthtU-70" style="edgeStyle=orthogonalEdgeStyle;rounded=0;orthogonalLoop=1;jettySize=auto;html=1;" parent="1" source="0zxNCpDedVLn85YkthtU-66" target="0zxNCpDedVLn85YkthtU-65" edge="1">
          <mxGeometry relative="1" as="geometry" />
        </mxCell>
        <mxCell id="sQC9BKvYQwO3YxjcOTNA-4" value="returns" style="edgeStyle=orthogonalEdgeStyle;rounded=0;orthogonalLoop=1;jettySize=auto;html=1;entryX=0.5;entryY=0;entryDx=0;entryDy=0;entryPerimeter=0;dashed=1;" edge="1" parent="1" source="0zxNCpDedVLn85YkthtU-66" target="0zxNCpDedVLn85YkthtU-47">
          <mxGeometry relative="1" as="geometry">
            <Array as="points">
              <mxPoint x="-180" y="20" />
              <mxPoint x="-795" y="20" />
            </Array>
          </mxGeometry>
        </mxCell>
        <mxCell id="0zxNCpDedVLn85YkthtU-66" value="Enqueue Job" style="shape=hexagon;perimeter=hexagonPerimeter2;whiteSpace=wrap;html=1;fixedSize=1;" parent="1" vertex="1">
          <mxGeometry x="-240" y="40" width="120" height="80" as="geometry" />
        </mxCell>
        <mxCell id="sQC9BKvYQwO3YxjcOTNA-10" style="edgeStyle=orthogonalEdgeStyle;rounded=0;orthogonalLoop=1;jettySize=auto;html=1;entryX=0;entryY=0.5;entryDx=0;entryDy=0;" edge="1" parent="1" source="sQC9BKvYQwO3YxjcOTNA-6" target="sQC9BKvYQwO3YxjcOTNA-9">
          <mxGeometry relative="1" as="geometry" />
        </mxCell>
        <mxCell id="sQC9BKvYQwO3YxjcOTNA-6" value="Job Starts" style="strokeWidth=2;html=1;shape=mxgraph.flowchart.terminator;whiteSpace=wrap;" vertex="1" parent="1">
          <mxGeometry x="-820" y="330" width="100" height="60" as="geometry" />
        </mxCell>
        <mxCell id="sQC9BKvYQwO3YxjcOTNA-7" value="" style="endArrow=none;dashed=1;html=1;dashPattern=1 3;strokeWidth=2;" edge="1" parent="1">
          <mxGeometry width="50" height="50" relative="1" as="geometry">
            <mxPoint x="-840" y="280" as="sourcePoint" />
            <mxPoint x="-40" y="280" as="targetPoint" />
          </mxGeometry>
        </mxCell>
        <mxCell id="sQC9BKvYQwO3YxjcOTNA-12" value="" style="edgeStyle=orthogonalEdgeStyle;rounded=0;orthogonalLoop=1;jettySize=auto;html=1;spacingBottom=35;" edge="1" parent="1" source="sQC9BKvYQwO3YxjcOTNA-9" target="sQC9BKvYQwO3YxjcOTNA-11">
          <mxGeometry relative="1" as="geometry" />
        </mxCell>
        <mxCell id="sQC9BKvYQwO3YxjcOTNA-17" value="No" style="edgeStyle=orthogonalEdgeStyle;rounded=0;orthogonalLoop=1;jettySize=auto;html=1;entryX=0.5;entryY=0;entryDx=0;entryDy=0;spacingLeft=30;spacingBottom=20;exitX=0.5;exitY=1;exitDx=0;exitDy=0;" edge="1" parent="1" source="sQC9BKvYQwO3YxjcOTNA-11" target="sQC9BKvYQwO3YxjcOTNA-15">
          <mxGeometry relative="1" as="geometry" />
        </mxCell>
        <mxCell id="sQC9BKvYQwO3YxjcOTNA-9" value="Get User and&amp;nbsp;&lt;br&gt;Environment Info" style="shape=hexagon;perimeter=hexagonPerimeter2;whiteSpace=wrap;html=1;fixedSize=1;" vertex="1" parent="1">
          <mxGeometry x="-680" y="320" width="120" height="80" as="geometry" />
        </mxCell>
        <mxCell id="sQC9BKvYQwO3YxjcOTNA-14" value="Yes" style="edgeStyle=orthogonalEdgeStyle;rounded=0;orthogonalLoop=1;jettySize=auto;html=1;spacingBottom=30;spacingRight=20;" edge="1" parent="1" source="sQC9BKvYQwO3YxjcOTNA-11" target="sQC9BKvYQwO3YxjcOTNA-13">
          <mxGeometry relative="1" as="geometry" />
        </mxCell>
        <mxCell id="sQC9BKvYQwO3YxjcOTNA-11" value="Step PDF&lt;br&gt;Generated" style="shape=hexagon;perimeter=hexagonPerimeter2;whiteSpace=wrap;html=1;fixedSize=1;" vertex="1" parent="1">
          <mxGeometry x="-520" y="320" width="120" height="80" as="geometry" />
        </mxCell>
        <mxCell id="sQC9BKvYQwO3YxjcOTNA-23" value="" style="edgeStyle=orthogonalEdgeStyle;rounded=0;orthogonalLoop=1;jettySize=auto;html=1;" edge="1" parent="1" source="sQC9BKvYQwO3YxjcOTNA-13" target="sQC9BKvYQwO3YxjcOTNA-22">
          <mxGeometry relative="1" as="geometry" />
        </mxCell>
        <mxCell id="sQC9BKvYQwO3YxjcOTNA-13" value="&lt;span&gt;Extract XML &amp;amp; &lt;br&gt;PDF File ID&lt;/span&gt;&lt;br&gt;&lt;span&gt;From Batch Step&lt;/span&gt;" style="shape=hexagon;perimeter=hexagonPerimeter2;whiteSpace=wrap;html=1;fixedSize=1;" vertex="1" parent="1">
          <mxGeometry x="-360" y="320" width="120" height="80" as="geometry" />
        </mxCell>
        <mxCell id="sQC9BKvYQwO3YxjcOTNA-19" value="" style="edgeStyle=orthogonalEdgeStyle;rounded=0;orthogonalLoop=1;jettySize=auto;html=1;" edge="1" parent="1" source="sQC9BKvYQwO3YxjcOTNA-15" target="sQC9BKvYQwO3YxjcOTNA-18">
          <mxGeometry relative="1" as="geometry" />
        </mxCell>
        <mxCell id="sQC9BKvYQwO3YxjcOTNA-15" value="Generate&lt;br&gt;MISMO&lt;br&gt;XML" style="shape=hexagon;perimeter=hexagonPerimeter2;whiteSpace=wrap;html=1;fixedSize=1;" vertex="1" parent="1">
          <mxGeometry x="-520" y="440" width="120" height="80" as="geometry" />
        </mxCell>
        <mxCell id="sQC9BKvYQwO3YxjcOTNA-26" style="edgeStyle=orthogonalEdgeStyle;rounded=0;orthogonalLoop=1;jettySize=auto;html=1;entryX=0;entryY=0.5;entryDx=0;entryDy=0;" edge="1" parent="1" source="sQC9BKvYQwO3YxjcOTNA-18" target="sQC9BKvYQwO3YxjcOTNA-24">
          <mxGeometry relative="1" as="geometry" />
        </mxCell>
        <mxCell id="sQC9BKvYQwO3YxjcOTNA-18" value="Store XML&lt;br&gt;In Loan File" style="shape=hexagon;perimeter=hexagonPerimeter2;whiteSpace=wrap;html=1;fixedSize=1;" vertex="1" parent="1">
          <mxGeometry x="-360" y="440" width="120" height="80" as="geometry" />
        </mxCell>
        <mxCell id="sQC9BKvYQwO3YxjcOTNA-25" value="" style="edgeStyle=orthogonalEdgeStyle;rounded=0;orthogonalLoop=1;jettySize=auto;html=1;" edge="1" parent="1" source="sQC9BKvYQwO3YxjcOTNA-22" target="sQC9BKvYQwO3YxjcOTNA-24">
          <mxGeometry relative="1" as="geometry" />
        </mxCell>
        <mxCell id="sQC9BKvYQwO3YxjcOTNA-22" value="With File ID Get &lt;br&gt;XML and PDF&lt;br&gt;Bytes" style="shape=hexagon;perimeter=hexagonPerimeter2;whiteSpace=wrap;html=1;fixedSize=1;" vertex="1" parent="1">
          <mxGeometry x="-200" y="320" width="120" height="80" as="geometry" />
        </mxCell>
        <mxCell id="sQC9BKvYQwO3YxjcOTNA-24" value="Pass Both Bytes&lt;br&gt;To&amp;nbsp;&lt;br&gt;Step Generate&lt;br&gt;PDF" style="shape=hexagon;perimeter=hexagonPerimeter2;whiteSpace=wrap;html=1;fixedSize=1;" vertex="1" parent="1">
          <mxGeometry x="-200" y="440" width="120" height="80" as="geometry" />
        </mxCell>
      </root>
    </mxGraphModel>
  </diagram>
</mxfile>
